# xmcd
#
# Track frame offsets: 
#        150
#        8212
#        51573
#        79568
#        109182
#        156526
#        207998
#        261042
#        277654
#        295714
#
# Disc length: 4141 seconds
#
# Revision: 0
# Processed by: cddbd v1.5.2PL0 Copyright (c) Steve Scherf et al.
# Submitted via: ExactAudioCopy v0.95b3
#
DISCID=88102b0a
DTITLE=Jimi Hendrix  - The Stockholm Concert Vol. 2  FLAC
DYEAR=1900
DGENRE=
TTITLE0=Introduction
TTITLE1=I Don't Live Today
TTITLE2=Spanish Castle Magic
TTITLE3=Hey Joe
TTITLE4=Voodoo Chile
TTITLE5=Sunshine Of Your Love
TTITLE6=Red House
TTITLE7=Fire
TTITLE8=Purple Haze
TTITLE9=Star Spangled Banner
EXTD=
EXTT0=
EXTT1=
EXTT2=
EXTT3=
EXTT4=
EXTT5=
EXTT6=
EXTT7=
EXTT8=
EXTT9=
PLAYORDER=
